# xmcd CD database file
#
# Track frame offsets:
#	150
#	40250
#	66710
#	104747
#	128207
#	161047
#	187195
#	213109
#	243027
#
# Disc length: 3397 seconds
#
# Revision: 0
# Processed by: cddbd v1.5.2PL0 Copyright (c) Steve Scherf et al.
# Submitted via: CDex 1.70beta2
#
DISCID=870d4309
DTITLE=Peter Schärli Special Sextet - Blues For The Beast
DYEAR=1997
DGENRE=Jazz
TTITLE0=Grünspan
TTITLE1=Miniature I
TTITLE2=Miniature IV
TTITLE3=Another Death
TTITLE4=Steam Cure
TTITLE5=Entry
TTITLE6=Miniature II - Schnipp-Schnapp II - Miniature II
TTITLE7=Blues For The Beast
TTITLE8=Miniature III
EXTD=YEAR: 1997
EXTT0=
EXTT1=
EXTT2=
EXTT3=
EXTT4=
EXTT5=
EXTT6=
EXTT7=
EXTT8=
PLAYORDER=
